<svg xmlns="http://www.w3.org/2000/svg" xmlns:xlink="http://www.w3.org/1999/xlink" version="1.1" width="256" height="256" viewBox="0 0 256 256" xml:space="preserve">

<defs>
</defs>
<g style="stroke: none; stroke-width: 0; stroke-dasharray: none; stroke-linecap: butt; stroke-linejoin: miter; stroke-miterlimit: 10; fill: none; fill-rule: nonzero; opacity: 1;" transform="translate(1.4065934065934016 1.4065934065934016) scale(2.81 2.81)" >
	<path d="M 58.081 88.869 c -17.048 0 -30.918 -13.869 -30.918 -30.919 c 0 -21.704 17.405 -41.77 28.923 -55.048 l 1.258 -1.451 c 0.37 -0.429 1.105 -0.429 1.475 0 l 1.257 1.45 C 71.594 16.18 89 36.245 89 57.951 C 89 75 75.13 88.869 58.081 88.869 z" style="stroke: none; stroke-width: 1; stroke-dasharray: none; stroke-linecap: butt; stroke-linejoin: miter; stroke-miterlimit: 10; fill: rgb(102,219,255); fill-rule: nonzero; opacity: 1;" transform=" matrix(1 0 0 1 0 0) " stroke-linecap="round" />
	<path d="M 58.081 89.869 c -6.845 0 -13.375 -2.144 -18.884 -6.199 c -0.445 -0.328 -0.54 -0.954 -0.212 -1.398 c 0.327 -0.444 0.954 -0.538 1.398 -0.213 c 5.163 3.802 11.283 5.811 17.698 5.811 C 74.578 87.869 88 74.447 88 57.95 C 88 36.62 70.742 16.724 59.322 3.559 l -1.259 -1.452 l -1.221 1.45 c -6.299 7.261 -14.137 16.296 -20.08 26.565 c -0.277 0.478 -0.888 0.641 -1.367 0.365 c -0.478 -0.277 -0.641 -0.889 -0.365 -1.367 C 41.07 18.687 48.978 9.572 55.331 2.248 l 1.257 -1.45 c 0.735 -0.848 2.254 -0.847 2.987 0 l 1.257 1.449 C 72.448 15.638 90 35.873 90 57.95 C 90 75.551 75.682 89.869 58.081 89.869 z" style="stroke: none; stroke-width: 1; stroke-dasharray: none; stroke-linecap: butt; stroke-linejoin: miter; stroke-miterlimit: 10; fill: rgb(0,0,0); fill-rule: nonzero; opacity: 1;" transform=" matrix(1 0 0 1 0 0) " stroke-linecap="round" />
	<path d="M 22.505 37.038 c -0.229 0 -0.46 -0.079 -0.648 -0.239 c -6.8 -5.792 -13.409 -5.792 -20.209 0 c -0.42 0.356 -1.052 0.308 -1.41 -0.113 c -0.358 -0.42 -0.308 -1.052 0.113 -1.41 c 7.565 -6.444 15.237 -6.444 22.803 0 c 0.42 0.358 0.471 0.989 0.113 1.41 C 23.069 36.919 22.788 37.038 22.505 37.038 z" style="stroke: none; stroke-width: 1; stroke-dasharray: none; stroke-linecap: butt; stroke-linejoin: miter; stroke-miterlimit: 10; fill: rgb(0,0,0); fill-rule: nonzero; opacity: 1;" transform=" matrix(1 0 0 1 0 0) " stroke-linecap="round" />
	<path d="M 33.254 41.618 c -1.738 0 -3.477 -0.333 -5.211 -1.001 c -0.515 -0.198 -0.772 -0.777 -0.574 -1.292 c 0.199 -0.515 0.779 -0.771 1.292 -0.574 c 4.878 1.877 9.654 0.741 14.602 -3.474 c 7.564 -6.443 15.236 -6.445 22.803 0 c 0.421 0.358 0.471 0.989 0.113 1.41 c -0.359 0.421 -0.989 0.469 -1.41 0.113 c -6.799 -5.792 -13.409 -5.792 -20.209 0 C 40.895 40.007 37.075 41.617 33.254 41.618 z" style="stroke: none; stroke-width: 1; stroke-dasharray: none; stroke-linecap: butt; stroke-linejoin: miter; stroke-miterlimit: 10; fill: rgb(0,0,0); fill-rule: nonzero; opacity: 1;" transform=" matrix(1 0 0 1 0 0) " stroke-linecap="round" />
	<path d="M 33.262 75.518 c -3.82 0 -7.637 -1.609 -11.404 -4.818 c -6.8 -5.794 -13.41 -5.792 -20.209 0 c -0.42 0.357 -1.052 0.308 -1.41 -0.113 c -0.358 -0.42 -0.308 -1.052 0.113 -1.41 c 7.565 -6.443 15.237 -6.443 22.803 0 c 5.109 4.353 10.046 5.425 15.089 3.276 c 0.508 -0.218 1.095 0.02 1.312 0.528 c 0.216 0.508 -0.02 1.095 -0.528 1.312 C 37.109 75.109 35.185 75.518 33.262 75.518 z" style="stroke: none; stroke-width: 1; stroke-dasharray: none; stroke-linecap: butt; stroke-linejoin: miter; stroke-miterlimit: 10; fill: rgb(0,0,0); fill-rule: nonzero; opacity: 1;" transform=" matrix(1 0 0 1 0 0) " stroke-linecap="round" />
	<path d="M 44.013 70.937 c -0.283 0 -0.564 -0.119 -0.762 -0.352 c -0.358 -0.42 -0.308 -1.052 0.113 -1.41 c 7.564 -6.441 15.236 -6.443 22.803 0 c 0.421 0.358 0.471 0.989 0.113 1.41 c -0.359 0.422 -0.989 0.471 -1.41 0.113 c -6.799 -5.793 -13.409 -5.793 -20.209 0 C 44.473 70.859 44.242 70.937 44.013 70.937 z" style="stroke: none; stroke-width: 1; stroke-dasharray: none; stroke-linecap: butt; stroke-linejoin: miter; stroke-miterlimit: 10; fill: rgb(0,0,0); fill-rule: nonzero; opacity: 1;" transform=" matrix(1 0 0 1 0 0) " stroke-linecap="round" />
	<path d="M 33.259 58.583 c -3.81 0 -7.619 -1.611 -11.402 -4.835 c -6.8 -5.792 -13.41 -5.791 -20.209 0.001 c -0.42 0.356 -1.052 0.308 -1.41 -0.113 c -0.358 -0.42 -0.308 -1.052 0.113 -1.41 c 7.565 -6.443 15.237 -6.443 22.803 0 c 6.799 5.792 13.409 5.793 20.209 0.001 c 7.564 -6.444 15.236 -6.445 22.803 -0.001 c 3.381 2.881 6.78 4.342 10.104 4.342 c 0.553 0 1 0.447 1 1 s -0.447 1 -1 1 c -3.812 0 -7.648 -1.621 -11.401 -4.819 c -6.802 -5.793 -13.413 -5.791 -20.209 0.001 C 40.878 56.971 37.068 58.582 33.259 58.583 z" style="stroke: none; stroke-width: 1; stroke-dasharray: none; stroke-linecap: butt; stroke-linejoin: miter; stroke-miterlimit: 10; fill: rgb(0,0,0); fill-rule: nonzero; opacity: 1;" transform=" matrix(1 0 0 1 0 0) " stroke-linecap="round" />
</g>
</svg>